<?xml version="1.0" encoding="UTF-8"?>
<svg viewBox="0 0 80 60" xmlns="http://www.w3.org/2000/svg">
<path d="m0.297 0.29297v59.414h79.041v-59.414h-79.041zm74.41 54.844h-66.504l16.022-15.811 9.417 9.293 27.788-27.422 13.276 13.102v20.839zm0-27.302-13.276-13.102-27.788 27.422-9.417-9.2929-19.297 19.043v-47.042h69.779v22.971z"/>
<path d="m24.225 9.4336c-5.1075 0-9.2628 4.1005-9.2628 9.1406 0 5.0402 4.1553 9.1406 9.2628 9.1406s9.2628-4.1004 9.2628-9.1406c0-5.0401-4.1553-9.1406-9.2628-9.1406zm0 13.711c-2.5537 0-4.6314-2.0502-4.6314-4.5703s2.0777-4.5703 4.6314-4.5703 4.6314 2.0502 4.6314 4.5703-2.0777 4.5703-4.6314 4.5703z"/>
</svg>
