<?xml version="1.0" encoding="UTF-8"?>
<svg fill="none" viewBox="0 0 22 25" xmlns="http://www.w3.org/2000/svg">
<path d="m8.2114 3.5144c1.1764-3.6228 6.3017-3.6228 7.4782 0 0.6236 1.9203-0.3089 4.0008-2.1573 4.8132l-0.4052 0.1781c-4.8308 2.1233-2.5505 9.399 2.6281 8.3851l0.5868-0.1149c1.9609-0.3839 3.8997 0.7567 4.5168 2.657 1.1821 3.6404-2.985 6.6665-6.0808 4.4159l-0.408-0.2966c-1.4426-1.0486-3.3964-1.0486-4.839 0-3.2243 2.344-7.5625-0.8128-6.3313-4.6041 0.55064-1.6957-0.05311-3.5549-1.4952-4.6033-3.2249-2.3444-1.5689-7.4481 2.4182-7.4481 1.783 0 3.3633-1.1483 3.914-2.8441l0.17477-0.5382z" fill="#000"/>
</svg>
