<svg width="22" height="25" viewBox="0 0 22 25" fill="none" xmlns="http://www.w3.org/2000/svg">
<path d="M8.21143 3.5144C9.38786 -0.108377 14.5131 -0.108377 15.6896 3.5144C16.3132 5.43471 15.3807 7.51517 13.5323 8.32757L13.1271 8.50567C8.29625 10.629 10.5766 17.9047 15.7552 16.8908L16.342 16.7759C18.3029 16.392 20.2417 17.5326 20.8588 19.4329C22.0409 23.0733 17.8738 26.0994 14.778 23.8488L14.37 23.5522C12.9274 22.5036 10.9736 22.5036 9.53101 23.5522C6.30674 25.8962 1.96851 22.7394 3.19967 18.9481C3.75031 17.2524 3.14656 15.3932 1.70449 14.3448C-1.52043 12.0004 0.135606 6.89668 4.12264 6.89668C5.90564 6.89668 7.48598 5.74842 8.03666 4.0526L8.21143 3.5144Z" fill="white"/>
</svg>